<mxfile host="www.draw.io" modified="2020-11-20T06:53:21.823Z" agent="5.0 (Macintosh; Intel Mac OS X 10_15_6) AppleWebKit/537.36 (KHTML, like Gecko) Chrome/86.0.4240.198 Safari/537.36" etag="2JVIBLsfa1gVMYm3Y-T9" version="13.10.0" type="github">
  <diagram id="l6-A4_mXkFvyd_G12Gr5" name="Page-1">
    <mxGraphModel dx="1971" dy="684" grid="1" gridSize="10" guides="1" tooltips="1" connect="1" arrows="1" fold="1" page="1" pageScale="1" pageWidth="827" pageHeight="1169" math="0" shadow="0">
      <root>
        <mxCell id="0" />
        <mxCell id="1" parent="0" />
        <mxCell id="lDXIzcax4NrUWh7Z8lVg-64" value="point" style="shape=table;startSize=30;container=1;collapsible=1;childLayout=tableLayout;fixedRows=1;rowLines=0;fontStyle=1;align=center;resizeLast=1;" parent="1" vertex="1">
          <mxGeometry x="413.5" y="60" width="180" height="610" as="geometry" />
        </mxCell>
        <mxCell id="lDXIzcax4NrUWh7Z8lVg-65" value="" style="shape=partialRectangle;collapsible=0;dropTarget=0;pointerEvents=0;fillColor=none;top=0;left=0;bottom=1;right=0;points=[[0,0.5],[1,0.5]];portConstraint=eastwest;" parent="lDXIzcax4NrUWh7Z8lVg-64" vertex="1">
          <mxGeometry y="30" width="180" height="32" as="geometry" />
        </mxCell>
        <mxCell id="lDXIzcax4NrUWh7Z8lVg-66" value="PK" style="shape=partialRectangle;connectable=0;fillColor=none;top=0;left=0;bottom=0;right=0;fontStyle=1;overflow=hidden;" parent="lDXIzcax4NrUWh7Z8lVg-65" vertex="1">
          <mxGeometry width="30" height="32" as="geometry" />
        </mxCell>
        <mxCell id="lDXIzcax4NrUWh7Z8lVg-67" value="id" style="shape=partialRectangle;connectable=0;fillColor=none;top=0;left=0;bottom=0;right=0;align=left;spacingLeft=6;fontStyle=5;overflow=hidden;" parent="lDXIzcax4NrUWh7Z8lVg-65" vertex="1">
          <mxGeometry x="30" width="150" height="32" as="geometry" />
        </mxCell>
        <mxCell id="lDXIzcax4NrUWh7Z8lVg-68" value="" style="shape=partialRectangle;collapsible=0;dropTarget=0;pointerEvents=0;fillColor=none;top=0;left=0;bottom=0;right=0;points=[[0,0.5],[1,0.5]];portConstraint=eastwest;" parent="lDXIzcax4NrUWh7Z8lVg-64" vertex="1">
          <mxGeometry y="62" width="180" height="32" as="geometry" />
        </mxCell>
        <mxCell id="lDXIzcax4NrUWh7Z8lVg-69" value="" style="shape=partialRectangle;connectable=0;fillColor=none;top=0;left=0;bottom=0;right=0;editable=1;overflow=hidden;" parent="lDXIzcax4NrUWh7Z8lVg-68" vertex="1">
          <mxGeometry width="30" height="32" as="geometry" />
        </mxCell>
        <mxCell id="lDXIzcax4NrUWh7Z8lVg-70" value="id" style="shape=partialRectangle;connectable=0;fillColor=none;top=0;left=0;bottom=0;right=0;align=left;spacingLeft=6;overflow=hidden;" parent="lDXIzcax4NrUWh7Z8lVg-68" vertex="1">
          <mxGeometry x="30" width="150" height="32" as="geometry" />
        </mxCell>
        <mxCell id="lDXIzcax4NrUWh7Z8lVg-107" value="" style="shape=partialRectangle;collapsible=0;dropTarget=0;pointerEvents=0;fillColor=none;top=0;left=0;bottom=0;right=0;points=[[0,0.5],[1,0.5]];portConstraint=eastwest;" parent="lDXIzcax4NrUWh7Z8lVg-64" vertex="1">
          <mxGeometry y="94" width="180" height="33" as="geometry" />
        </mxCell>
        <mxCell id="lDXIzcax4NrUWh7Z8lVg-108" value="" style="shape=partialRectangle;connectable=0;fillColor=none;top=0;left=0;bottom=0;right=0;editable=1;overflow=hidden;" parent="lDXIzcax4NrUWh7Z8lVg-107" vertex="1">
          <mxGeometry width="30" height="33" as="geometry" />
        </mxCell>
        <mxCell id="lDXIzcax4NrUWh7Z8lVg-109" value="orgin_id" style="shape=partialRectangle;connectable=0;fillColor=none;top=0;left=0;bottom=0;right=0;align=left;spacingLeft=6;overflow=hidden;" parent="lDXIzcax4NrUWh7Z8lVg-107" vertex="1">
          <mxGeometry x="30" width="150" height="33" as="geometry" />
        </mxCell>
        <mxCell id="lDXIzcax4NrUWh7Z8lVg-71" value="" style="shape=partialRectangle;collapsible=0;dropTarget=0;pointerEvents=0;fillColor=none;top=0;left=0;bottom=0;right=0;points=[[0,0.5],[1,0.5]];portConstraint=eastwest;" parent="lDXIzcax4NrUWh7Z8lVg-64" vertex="1">
          <mxGeometry y="127" width="180" height="32" as="geometry" />
        </mxCell>
        <mxCell id="lDXIzcax4NrUWh7Z8lVg-72" value="" style="shape=partialRectangle;connectable=0;fillColor=none;top=0;left=0;bottom=0;right=0;editable=1;overflow=hidden;" parent="lDXIzcax4NrUWh7Z8lVg-71" vertex="1">
          <mxGeometry width="30" height="32" as="geometry" />
        </mxCell>
        <mxCell id="lDXIzcax4NrUWh7Z8lVg-73" value="name" style="shape=partialRectangle;connectable=0;fillColor=none;top=0;left=0;bottom=0;right=0;align=left;spacingLeft=6;overflow=hidden;" parent="lDXIzcax4NrUWh7Z8lVg-71" vertex="1">
          <mxGeometry x="30" width="150" height="32" as="geometry" />
        </mxCell>
        <mxCell id="lDXIzcax4NrUWh7Z8lVg-74" value="" style="shape=partialRectangle;collapsible=0;dropTarget=0;pointerEvents=0;fillColor=none;top=0;left=0;bottom=0;right=0;points=[[0,0.5],[1,0.5]];portConstraint=eastwest;" parent="lDXIzcax4NrUWh7Z8lVg-64" vertex="1">
          <mxGeometry y="159" width="180" height="32" as="geometry" />
        </mxCell>
        <mxCell id="lDXIzcax4NrUWh7Z8lVg-75" value="" style="shape=partialRectangle;connectable=0;fillColor=none;top=0;left=0;bottom=0;right=0;editable=1;overflow=hidden;" parent="lDXIzcax4NrUWh7Z8lVg-74" vertex="1">
          <mxGeometry width="30" height="32" as="geometry" />
        </mxCell>
        <mxCell id="lDXIzcax4NrUWh7Z8lVg-76" value="description" style="shape=partialRectangle;connectable=0;fillColor=none;top=0;left=0;bottom=0;right=0;align=left;spacingLeft=6;overflow=hidden;" parent="lDXIzcax4NrUWh7Z8lVg-74" vertex="1">
          <mxGeometry x="30" width="150" height="32" as="geometry" />
        </mxCell>
        <mxCell id="lDXIzcax4NrUWh7Z8lVg-77" value="" style="shape=partialRectangle;collapsible=0;dropTarget=0;pointerEvents=0;fillColor=none;top=0;left=0;bottom=0;right=0;points=[[0,0.5],[1,0.5]];portConstraint=eastwest;" parent="lDXIzcax4NrUWh7Z8lVg-64" vertex="1">
          <mxGeometry y="191" width="180" height="32" as="geometry" />
        </mxCell>
        <mxCell id="lDXIzcax4NrUWh7Z8lVg-78" value="" style="shape=partialRectangle;connectable=0;fillColor=none;top=0;left=0;bottom=0;right=0;editable=1;overflow=hidden;" parent="lDXIzcax4NrUWh7Z8lVg-77" vertex="1">
          <mxGeometry width="30" height="32" as="geometry" />
        </mxCell>
        <mxCell id="lDXIzcax4NrUWh7Z8lVg-79" value="lat" style="shape=partialRectangle;connectable=0;fillColor=none;top=0;left=0;bottom=0;right=0;align=left;spacingLeft=6;overflow=hidden;" parent="lDXIzcax4NrUWh7Z8lVg-77" vertex="1">
          <mxGeometry x="30" width="150" height="32" as="geometry" />
        </mxCell>
        <mxCell id="lDXIzcax4NrUWh7Z8lVg-80" value="" style="shape=partialRectangle;collapsible=0;dropTarget=0;pointerEvents=0;fillColor=none;top=0;left=0;bottom=0;right=0;points=[[0,0.5],[1,0.5]];portConstraint=eastwest;" parent="lDXIzcax4NrUWh7Z8lVg-64" vertex="1">
          <mxGeometry y="223" width="180" height="33" as="geometry" />
        </mxCell>
        <mxCell id="lDXIzcax4NrUWh7Z8lVg-81" value="" style="shape=partialRectangle;connectable=0;fillColor=none;top=0;left=0;bottom=0;right=0;editable=1;overflow=hidden;" parent="lDXIzcax4NrUWh7Z8lVg-80" vertex="1">
          <mxGeometry width="30" height="33" as="geometry" />
        </mxCell>
        <mxCell id="lDXIzcax4NrUWh7Z8lVg-82" value="lng" style="shape=partialRectangle;connectable=0;fillColor=none;top=0;left=0;bottom=0;right=0;align=left;spacingLeft=6;overflow=hidden;" parent="lDXIzcax4NrUWh7Z8lVg-80" vertex="1">
          <mxGeometry x="30" width="150" height="33" as="geometry" />
        </mxCell>
        <mxCell id="lDXIzcax4NrUWh7Z8lVg-83" value="" style="shape=partialRectangle;collapsible=0;dropTarget=0;pointerEvents=0;fillColor=none;top=0;left=0;bottom=0;right=0;points=[[0,0.5],[1,0.5]];portConstraint=eastwest;" parent="lDXIzcax4NrUWh7Z8lVg-64" vertex="1">
          <mxGeometry y="256" width="180" height="32" as="geometry" />
        </mxCell>
        <mxCell id="lDXIzcax4NrUWh7Z8lVg-84" value="" style="shape=partialRectangle;connectable=0;fillColor=none;top=0;left=0;bottom=0;right=0;editable=1;overflow=hidden;" parent="lDXIzcax4NrUWh7Z8lVg-83" vertex="1">
          <mxGeometry width="30" height="32" as="geometry" />
        </mxCell>
        <mxCell id="lDXIzcax4NrUWh7Z8lVg-85" value="x" style="shape=partialRectangle;connectable=0;fillColor=none;top=0;left=0;bottom=0;right=0;align=left;spacingLeft=6;overflow=hidden;" parent="lDXIzcax4NrUWh7Z8lVg-83" vertex="1">
          <mxGeometry x="30" width="150" height="32" as="geometry" />
        </mxCell>
        <mxCell id="lDXIzcax4NrUWh7Z8lVg-86" value="" style="shape=partialRectangle;collapsible=0;dropTarget=0;pointerEvents=0;fillColor=none;top=0;left=0;bottom=0;right=0;points=[[0,0.5],[1,0.5]];portConstraint=eastwest;" parent="lDXIzcax4NrUWh7Z8lVg-64" vertex="1">
          <mxGeometry y="288" width="180" height="32" as="geometry" />
        </mxCell>
        <mxCell id="lDXIzcax4NrUWh7Z8lVg-87" value="" style="shape=partialRectangle;connectable=0;fillColor=none;top=0;left=0;bottom=0;right=0;editable=1;overflow=hidden;" parent="lDXIzcax4NrUWh7Z8lVg-86" vertex="1">
          <mxGeometry width="30" height="32" as="geometry" />
        </mxCell>
        <mxCell id="lDXIzcax4NrUWh7Z8lVg-88" value="y" style="shape=partialRectangle;connectable=0;fillColor=none;top=0;left=0;bottom=0;right=0;align=left;spacingLeft=6;overflow=hidden;" parent="lDXIzcax4NrUWh7Z8lVg-86" vertex="1">
          <mxGeometry x="30" width="150" height="32" as="geometry" />
        </mxCell>
        <mxCell id="lDXIzcax4NrUWh7Z8lVg-89" value="" style="shape=partialRectangle;collapsible=0;dropTarget=0;pointerEvents=0;fillColor=none;top=0;left=0;bottom=0;right=0;points=[[0,0.5],[1,0.5]];portConstraint=eastwest;" parent="lDXIzcax4NrUWh7Z8lVg-64" vertex="1">
          <mxGeometry y="320" width="180" height="32" as="geometry" />
        </mxCell>
        <mxCell id="lDXIzcax4NrUWh7Z8lVg-90" value="" style="shape=partialRectangle;connectable=0;fillColor=none;top=0;left=0;bottom=0;right=0;editable=1;overflow=hidden;" parent="lDXIzcax4NrUWh7Z8lVg-89" vertex="1">
          <mxGeometry width="30" height="32" as="geometry" />
        </mxCell>
        <mxCell id="lDXIzcax4NrUWh7Z8lVg-91" value="z" style="shape=partialRectangle;connectable=0;fillColor=none;top=0;left=0;bottom=0;right=0;align=left;spacingLeft=6;overflow=hidden;" parent="lDXIzcax4NrUWh7Z8lVg-89" vertex="1">
          <mxGeometry x="30" width="150" height="32" as="geometry" />
        </mxCell>
        <mxCell id="lDXIzcax4NrUWh7Z8lVg-92" value="" style="shape=partialRectangle;collapsible=0;dropTarget=0;pointerEvents=0;fillColor=none;top=0;left=0;bottom=0;right=0;points=[[0,0.5],[1,0.5]];portConstraint=eastwest;" parent="lDXIzcax4NrUWh7Z8lVg-64" vertex="1">
          <mxGeometry y="352" width="180" height="32" as="geometry" />
        </mxCell>
        <mxCell id="lDXIzcax4NrUWh7Z8lVg-93" value="" style="shape=partialRectangle;connectable=0;fillColor=none;top=0;left=0;bottom=0;right=0;editable=1;overflow=hidden;" parent="lDXIzcax4NrUWh7Z8lVg-92" vertex="1">
          <mxGeometry width="30" height="32" as="geometry" />
        </mxCell>
        <mxCell id="lDXIzcax4NrUWh7Z8lVg-94" value="city" style="shape=partialRectangle;connectable=0;fillColor=none;top=0;left=0;bottom=0;right=0;align=left;spacingLeft=6;overflow=hidden;" parent="lDXIzcax4NrUWh7Z8lVg-92" vertex="1">
          <mxGeometry x="30" width="150" height="32" as="geometry" />
        </mxCell>
        <mxCell id="lDXIzcax4NrUWh7Z8lVg-95" value="" style="shape=partialRectangle;collapsible=0;dropTarget=0;pointerEvents=0;fillColor=none;top=0;left=0;bottom=0;right=0;points=[[0,0.5],[1,0.5]];portConstraint=eastwest;" parent="lDXIzcax4NrUWh7Z8lVg-64" vertex="1">
          <mxGeometry y="384" width="180" height="33" as="geometry" />
        </mxCell>
        <mxCell id="lDXIzcax4NrUWh7Z8lVg-96" value="" style="shape=partialRectangle;connectable=0;fillColor=none;top=0;left=0;bottom=0;right=0;editable=1;overflow=hidden;" parent="lDXIzcax4NrUWh7Z8lVg-95" vertex="1">
          <mxGeometry width="30" height="33" as="geometry" />
        </mxCell>
        <mxCell id="lDXIzcax4NrUWh7Z8lVg-97" value="region" style="shape=partialRectangle;connectable=0;fillColor=none;top=0;left=0;bottom=0;right=0;align=left;spacingLeft=6;overflow=hidden;" parent="lDXIzcax4NrUWh7Z8lVg-95" vertex="1">
          <mxGeometry x="30" width="150" height="33" as="geometry" />
        </mxCell>
        <mxCell id="lDXIzcax4NrUWh7Z8lVg-116" value="" style="shape=partialRectangle;collapsible=0;dropTarget=0;pointerEvents=0;fillColor=none;top=0;left=0;bottom=0;right=0;points=[[0,0.5],[1,0.5]];portConstraint=eastwest;" parent="lDXIzcax4NrUWh7Z8lVg-64" vertex="1">
          <mxGeometry y="417" width="180" height="32" as="geometry" />
        </mxCell>
        <mxCell id="lDXIzcax4NrUWh7Z8lVg-117" value="" style="shape=partialRectangle;connectable=0;fillColor=none;top=0;left=0;bottom=0;right=0;editable=1;overflow=hidden;" parent="lDXIzcax4NrUWh7Z8lVg-116" vertex="1">
          <mxGeometry width="30" height="32" as="geometry" />
        </mxCell>
        <mxCell id="lDXIzcax4NrUWh7Z8lVg-118" value="is_pick" style="shape=partialRectangle;connectable=0;fillColor=none;top=0;left=0;bottom=0;right=0;align=left;spacingLeft=6;overflow=hidden;" parent="lDXIzcax4NrUWh7Z8lVg-116" vertex="1">
          <mxGeometry x="30" width="150" height="32" as="geometry" />
        </mxCell>
        <mxCell id="lDXIzcax4NrUWh7Z8lVg-119" value="" style="shape=partialRectangle;collapsible=0;dropTarget=0;pointerEvents=0;fillColor=none;top=0;left=0;bottom=0;right=0;points=[[0,0.5],[1,0.5]];portConstraint=eastwest;" parent="lDXIzcax4NrUWh7Z8lVg-64" vertex="1">
          <mxGeometry y="449" width="180" height="32" as="geometry" />
        </mxCell>
        <mxCell id="lDXIzcax4NrUWh7Z8lVg-120" value="" style="shape=partialRectangle;connectable=0;fillColor=none;top=0;left=0;bottom=0;right=0;editable=1;overflow=hidden;" parent="lDXIzcax4NrUWh7Z8lVg-119" vertex="1">
          <mxGeometry width="30" height="32" as="geometry" />
        </mxCell>
        <mxCell id="lDXIzcax4NrUWh7Z8lVg-121" value="is_drop" style="shape=partialRectangle;connectable=0;fillColor=none;top=0;left=0;bottom=0;right=0;align=left;spacingLeft=6;overflow=hidden;" parent="lDXIzcax4NrUWh7Z8lVg-119" vertex="1">
          <mxGeometry x="30" width="150" height="32" as="geometry" />
        </mxCell>
        <mxCell id="lDXIzcax4NrUWh7Z8lVg-122" value="" style="shape=partialRectangle;collapsible=0;dropTarget=0;pointerEvents=0;fillColor=none;top=0;left=0;bottom=0;right=0;points=[[0,0.5],[1,0.5]];portConstraint=eastwest;" parent="lDXIzcax4NrUWh7Z8lVg-64" vertex="1">
          <mxGeometry y="481" width="180" height="32" as="geometry" />
        </mxCell>
        <mxCell id="lDXIzcax4NrUWh7Z8lVg-123" value="" style="shape=partialRectangle;connectable=0;fillColor=none;top=0;left=0;bottom=0;right=0;editable=1;overflow=hidden;" parent="lDXIzcax4NrUWh7Z8lVg-122" vertex="1">
          <mxGeometry width="30" height="32" as="geometry" />
        </mxCell>
        <mxCell id="lDXIzcax4NrUWh7Z8lVg-124" value="enabled" style="shape=partialRectangle;connectable=0;fillColor=none;top=0;left=0;bottom=0;right=0;align=left;spacingLeft=6;overflow=hidden;" parent="lDXIzcax4NrUWh7Z8lVg-122" vertex="1">
          <mxGeometry x="30" width="150" height="32" as="geometry" />
        </mxCell>
        <mxCell id="lDXIzcax4NrUWh7Z8lVg-125" value="" style="shape=partialRectangle;collapsible=0;dropTarget=0;pointerEvents=0;fillColor=none;top=0;left=0;bottom=0;right=0;points=[[0,0.5],[1,0.5]];portConstraint=eastwest;" parent="lDXIzcax4NrUWh7Z8lVg-64" vertex="1">
          <mxGeometry y="513" width="180" height="33" as="geometry" />
        </mxCell>
        <mxCell id="lDXIzcax4NrUWh7Z8lVg-126" value="" style="shape=partialRectangle;connectable=0;fillColor=none;top=0;left=0;bottom=0;right=0;editable=1;overflow=hidden;" parent="lDXIzcax4NrUWh7Z8lVg-125" vertex="1">
          <mxGeometry width="30" height="33" as="geometry" />
        </mxCell>
        <mxCell id="lDXIzcax4NrUWh7Z8lVg-127" value="type" style="shape=partialRectangle;connectable=0;fillColor=none;top=0;left=0;bottom=0;right=0;align=left;spacingLeft=6;overflow=hidden;" parent="lDXIzcax4NrUWh7Z8lVg-125" vertex="1">
          <mxGeometry x="30" width="150" height="33" as="geometry" />
        </mxCell>
        <mxCell id="lDXIzcax4NrUWh7Z8lVg-98" value="" style="shape=partialRectangle;collapsible=0;dropTarget=0;pointerEvents=0;fillColor=none;top=0;left=0;bottom=0;right=0;points=[[0,0.5],[1,0.5]];portConstraint=eastwest;" parent="lDXIzcax4NrUWh7Z8lVg-64" vertex="1">
          <mxGeometry y="546" width="180" height="32" as="geometry" />
        </mxCell>
        <mxCell id="lDXIzcax4NrUWh7Z8lVg-99" value="" style="shape=partialRectangle;connectable=0;fillColor=none;top=0;left=0;bottom=0;right=0;editable=1;overflow=hidden;" parent="lDXIzcax4NrUWh7Z8lVg-98" vertex="1">
          <mxGeometry width="30" height="32" as="geometry" />
        </mxCell>
        <mxCell id="lDXIzcax4NrUWh7Z8lVg-100" value="created_at" style="shape=partialRectangle;connectable=0;fillColor=none;top=0;left=0;bottom=0;right=0;align=left;spacingLeft=6;overflow=hidden;" parent="lDXIzcax4NrUWh7Z8lVg-98" vertex="1">
          <mxGeometry x="30" width="150" height="32" as="geometry" />
        </mxCell>
        <mxCell id="lDXIzcax4NrUWh7Z8lVg-101" value="" style="shape=partialRectangle;collapsible=0;dropTarget=0;pointerEvents=0;fillColor=none;top=0;left=0;bottom=0;right=0;points=[[0,0.5],[1,0.5]];portConstraint=eastwest;" parent="lDXIzcax4NrUWh7Z8lVg-64" vertex="1">
          <mxGeometry y="578" width="180" height="32" as="geometry" />
        </mxCell>
        <mxCell id="lDXIzcax4NrUWh7Z8lVg-102" value="" style="shape=partialRectangle;connectable=0;fillColor=none;top=0;left=0;bottom=0;right=0;editable=1;overflow=hidden;" parent="lDXIzcax4NrUWh7Z8lVg-101" vertex="1">
          <mxGeometry width="30" height="32" as="geometry" />
        </mxCell>
        <mxCell id="lDXIzcax4NrUWh7Z8lVg-103" value="updated_at" style="shape=partialRectangle;connectable=0;fillColor=none;top=0;left=0;bottom=0;right=0;align=left;spacingLeft=6;overflow=hidden;" parent="lDXIzcax4NrUWh7Z8lVg-101" vertex="1">
          <mxGeometry x="30" width="150" height="32" as="geometry" />
        </mxCell>
        <mxCell id="lDXIzcax4NrUWh7Z8lVg-2" value="vehicle" style="shape=table;startSize=30;container=1;collapsible=1;childLayout=tableLayout;fixedRows=1;rowLines=0;fontStyle=1;align=center;resizeLast=1;" parent="1" vertex="1">
          <mxGeometry x="200" y="60" width="180" height="390" as="geometry" />
        </mxCell>
        <mxCell id="lDXIzcax4NrUWh7Z8lVg-3" value="" style="shape=partialRectangle;collapsible=0;dropTarget=0;pointerEvents=0;fillColor=none;top=0;left=0;bottom=1;right=0;points=[[0,0.5],[1,0.5]];portConstraint=eastwest;" parent="lDXIzcax4NrUWh7Z8lVg-2" vertex="1">
          <mxGeometry y="30" width="180" height="33" as="geometry" />
        </mxCell>
        <mxCell id="lDXIzcax4NrUWh7Z8lVg-4" value="PK" style="shape=partialRectangle;connectable=0;fillColor=none;top=0;left=0;bottom=0;right=0;fontStyle=1;overflow=hidden;" parent="lDXIzcax4NrUWh7Z8lVg-3" vertex="1">
          <mxGeometry width="30" height="33" as="geometry" />
        </mxCell>
        <mxCell id="lDXIzcax4NrUWh7Z8lVg-5" value="id" style="shape=partialRectangle;connectable=0;fillColor=none;top=0;left=0;bottom=0;right=0;align=left;spacingLeft=6;fontStyle=5;overflow=hidden;" parent="lDXIzcax4NrUWh7Z8lVg-3" vertex="1">
          <mxGeometry x="30" width="150" height="33" as="geometry" />
        </mxCell>
        <mxCell id="lDXIzcax4NrUWh7Z8lVg-6" value="" style="shape=partialRectangle;collapsible=0;dropTarget=0;pointerEvents=0;fillColor=none;top=0;left=0;bottom=0;right=0;points=[[0,0.5],[1,0.5]];portConstraint=eastwest;" parent="lDXIzcax4NrUWh7Z8lVg-2" vertex="1">
          <mxGeometry y="63" width="180" height="32" as="geometry" />
        </mxCell>
        <mxCell id="lDXIzcax4NrUWh7Z8lVg-7" value="" style="shape=partialRectangle;connectable=0;fillColor=none;top=0;left=0;bottom=0;right=0;editable=1;overflow=hidden;" parent="lDXIzcax4NrUWh7Z8lVg-6" vertex="1">
          <mxGeometry width="30" height="32" as="geometry" />
        </mxCell>
        <mxCell id="lDXIzcax4NrUWh7Z8lVg-8" value="name" style="shape=partialRectangle;connectable=0;fillColor=none;top=0;left=0;bottom=0;right=0;align=left;spacingLeft=6;overflow=hidden;" parent="lDXIzcax4NrUWh7Z8lVg-6" vertex="1">
          <mxGeometry x="30" width="150" height="32" as="geometry" />
        </mxCell>
        <mxCell id="lDXIzcax4NrUWh7Z8lVg-9" value="" style="shape=partialRectangle;collapsible=0;dropTarget=0;pointerEvents=0;fillColor=none;top=0;left=0;bottom=0;right=0;points=[[0,0.5],[1,0.5]];portConstraint=eastwest;" parent="lDXIzcax4NrUWh7Z8lVg-2" vertex="1">
          <mxGeometry y="95" width="180" height="33" as="geometry" />
        </mxCell>
        <mxCell id="lDXIzcax4NrUWh7Z8lVg-10" value="" style="shape=partialRectangle;connectable=0;fillColor=none;top=0;left=0;bottom=0;right=0;editable=1;overflow=hidden;" parent="lDXIzcax4NrUWh7Z8lVg-9" vertex="1">
          <mxGeometry width="30" height="33" as="geometry" />
        </mxCell>
        <mxCell id="lDXIzcax4NrUWh7Z8lVg-11" value="code" style="shape=partialRectangle;connectable=0;fillColor=none;top=0;left=0;bottom=0;right=0;align=left;spacingLeft=6;overflow=hidden;" parent="lDXIzcax4NrUWh7Z8lVg-9" vertex="1">
          <mxGeometry x="30" width="150" height="33" as="geometry" />
        </mxCell>
        <mxCell id="lDXIzcax4NrUWh7Z8lVg-12" value="" style="shape=partialRectangle;collapsible=0;dropTarget=0;pointerEvents=0;fillColor=none;top=0;left=0;bottom=0;right=0;points=[[0,0.5],[1,0.5]];portConstraint=eastwest;" parent="lDXIzcax4NrUWh7Z8lVg-2" vertex="1">
          <mxGeometry y="128" width="180" height="33" as="geometry" />
        </mxCell>
        <mxCell id="lDXIzcax4NrUWh7Z8lVg-13" value="" style="shape=partialRectangle;connectable=0;fillColor=none;top=0;left=0;bottom=0;right=0;editable=1;overflow=hidden;" parent="lDXIzcax4NrUWh7Z8lVg-12" vertex="1">
          <mxGeometry width="30" height="33" as="geometry" />
        </mxCell>
        <mxCell id="lDXIzcax4NrUWh7Z8lVg-14" value="plate" style="shape=partialRectangle;connectable=0;fillColor=none;top=0;left=0;bottom=0;right=0;align=left;spacingLeft=6;overflow=hidden;" parent="lDXIzcax4NrUWh7Z8lVg-12" vertex="1">
          <mxGeometry x="30" width="150" height="33" as="geometry" />
        </mxCell>
        <mxCell id="lDXIzcax4NrUWh7Z8lVg-20" value="" style="shape=partialRectangle;collapsible=0;dropTarget=0;pointerEvents=0;fillColor=none;top=0;left=0;bottom=0;right=0;points=[[0,0.5],[1,0.5]];portConstraint=eastwest;" parent="lDXIzcax4NrUWh7Z8lVg-2" vertex="1">
          <mxGeometry y="161" width="180" height="33" as="geometry" />
        </mxCell>
        <mxCell id="lDXIzcax4NrUWh7Z8lVg-21" value="" style="shape=partialRectangle;connectable=0;fillColor=none;top=0;left=0;bottom=0;right=0;editable=1;overflow=hidden;" parent="lDXIzcax4NrUWh7Z8lVg-20" vertex="1">
          <mxGeometry width="30" height="33" as="geometry" />
        </mxCell>
        <mxCell id="lDXIzcax4NrUWh7Z8lVg-22" value="area" style="shape=partialRectangle;connectable=0;fillColor=none;top=0;left=0;bottom=0;right=0;align=left;spacingLeft=6;overflow=hidden;" parent="lDXIzcax4NrUWh7Z8lVg-20" vertex="1">
          <mxGeometry x="30" width="150" height="33" as="geometry" />
        </mxCell>
        <mxCell id="lDXIzcax4NrUWh7Z8lVg-46" value="" style="shape=partialRectangle;collapsible=0;dropTarget=0;pointerEvents=0;fillColor=none;top=0;left=0;bottom=0;right=0;points=[[0,0.5],[1,0.5]];portConstraint=eastwest;" parent="lDXIzcax4NrUWh7Z8lVg-2" vertex="1">
          <mxGeometry y="194" width="180" height="32" as="geometry" />
        </mxCell>
        <mxCell id="lDXIzcax4NrUWh7Z8lVg-47" value="" style="shape=partialRectangle;connectable=0;fillColor=none;top=0;left=0;bottom=0;right=0;editable=1;overflow=hidden;" parent="lDXIzcax4NrUWh7Z8lVg-46" vertex="1">
          <mxGeometry width="30" height="32" as="geometry" />
        </mxCell>
        <mxCell id="lDXIzcax4NrUWh7Z8lVg-48" value="city" style="shape=partialRectangle;connectable=0;fillColor=none;top=0;left=0;bottom=0;right=0;align=left;spacingLeft=6;overflow=hidden;" parent="lDXIzcax4NrUWh7Z8lVg-46" vertex="1">
          <mxGeometry x="30" width="150" height="32" as="geometry" />
        </mxCell>
        <mxCell id="lDXIzcax4NrUWh7Z8lVg-61" value="" style="shape=partialRectangle;collapsible=0;dropTarget=0;pointerEvents=0;fillColor=none;top=0;left=0;bottom=0;right=0;points=[[0,0.5],[1,0.5]];portConstraint=eastwest;" parent="lDXIzcax4NrUWh7Z8lVg-2" vertex="1">
          <mxGeometry y="226" width="180" height="33" as="geometry" />
        </mxCell>
        <mxCell id="lDXIzcax4NrUWh7Z8lVg-62" value="" style="shape=partialRectangle;connectable=0;fillColor=none;top=0;left=0;bottom=0;right=0;editable=1;overflow=hidden;" parent="lDXIzcax4NrUWh7Z8lVg-61" vertex="1">
          <mxGeometry width="30" height="33" as="geometry" />
        </mxCell>
        <mxCell id="lDXIzcax4NrUWh7Z8lVg-63" value="photo" style="shape=partialRectangle;connectable=0;fillColor=none;top=0;left=0;bottom=0;right=0;align=left;spacingLeft=6;overflow=hidden;" parent="lDXIzcax4NrUWh7Z8lVg-61" vertex="1">
          <mxGeometry x="30" width="150" height="33" as="geometry" />
        </mxCell>
        <mxCell id="lDXIzcax4NrUWh7Z8lVg-49" value="" style="shape=partialRectangle;collapsible=0;dropTarget=0;pointerEvents=0;fillColor=none;top=0;left=0;bottom=0;right=0;points=[[0,0.5],[1,0.5]];portConstraint=eastwest;" parent="lDXIzcax4NrUWh7Z8lVg-2" vertex="1">
          <mxGeometry y="259" width="180" height="33" as="geometry" />
        </mxCell>
        <mxCell id="lDXIzcax4NrUWh7Z8lVg-50" value="" style="shape=partialRectangle;connectable=0;fillColor=none;top=0;left=0;bottom=0;right=0;editable=1;overflow=hidden;" parent="lDXIzcax4NrUWh7Z8lVg-49" vertex="1">
          <mxGeometry width="30" height="33" as="geometry" />
        </mxCell>
        <mxCell id="lDXIzcax4NrUWh7Z8lVg-51" value="status" style="shape=partialRectangle;connectable=0;fillColor=none;top=0;left=0;bottom=0;right=0;align=left;spacingLeft=6;overflow=hidden;" parent="lDXIzcax4NrUWh7Z8lVg-49" vertex="1">
          <mxGeometry x="30" width="150" height="33" as="geometry" />
        </mxCell>
        <mxCell id="lDXIzcax4NrUWh7Z8lVg-52" value="" style="shape=partialRectangle;collapsible=0;dropTarget=0;pointerEvents=0;fillColor=none;top=0;left=0;bottom=0;right=0;points=[[0,0.5],[1,0.5]];portConstraint=eastwest;" parent="lDXIzcax4NrUWh7Z8lVg-2" vertex="1">
          <mxGeometry y="292" width="180" height="33" as="geometry" />
        </mxCell>
        <mxCell id="lDXIzcax4NrUWh7Z8lVg-53" value="" style="shape=partialRectangle;connectable=0;fillColor=none;top=0;left=0;bottom=0;right=0;editable=1;overflow=hidden;" parent="lDXIzcax4NrUWh7Z8lVg-52" vertex="1">
          <mxGeometry width="30" height="33" as="geometry" />
        </mxCell>
        <mxCell id="lDXIzcax4NrUWh7Z8lVg-54" value="occupy" style="shape=partialRectangle;connectable=0;fillColor=none;top=0;left=0;bottom=0;right=0;align=left;spacingLeft=6;overflow=hidden;" parent="lDXIzcax4NrUWh7Z8lVg-52" vertex="1">
          <mxGeometry x="30" width="150" height="33" as="geometry" />
        </mxCell>
        <mxCell id="lDXIzcax4NrUWh7Z8lVg-55" value="" style="shape=partialRectangle;collapsible=0;dropTarget=0;pointerEvents=0;fillColor=none;top=0;left=0;bottom=0;right=0;points=[[0,0.5],[1,0.5]];portConstraint=eastwest;" parent="lDXIzcax4NrUWh7Z8lVg-2" vertex="1">
          <mxGeometry y="325" width="180" height="32" as="geometry" />
        </mxCell>
        <mxCell id="lDXIzcax4NrUWh7Z8lVg-56" value="" style="shape=partialRectangle;connectable=0;fillColor=none;top=0;left=0;bottom=0;right=0;editable=1;overflow=hidden;" parent="lDXIzcax4NrUWh7Z8lVg-55" vertex="1">
          <mxGeometry width="30" height="32" as="geometry" />
        </mxCell>
        <mxCell id="lDXIzcax4NrUWh7Z8lVg-57" value="created_at" style="shape=partialRectangle;connectable=0;fillColor=none;top=0;left=0;bottom=0;right=0;align=left;spacingLeft=6;overflow=hidden;" parent="lDXIzcax4NrUWh7Z8lVg-55" vertex="1">
          <mxGeometry x="30" width="150" height="32" as="geometry" />
        </mxCell>
        <mxCell id="lDXIzcax4NrUWh7Z8lVg-58" value="" style="shape=partialRectangle;collapsible=0;dropTarget=0;pointerEvents=0;fillColor=none;top=0;left=0;bottom=0;right=0;points=[[0,0.5],[1,0.5]];portConstraint=eastwest;" parent="lDXIzcax4NrUWh7Z8lVg-2" vertex="1">
          <mxGeometry y="357" width="180" height="33" as="geometry" />
        </mxCell>
        <mxCell id="lDXIzcax4NrUWh7Z8lVg-59" value="" style="shape=partialRectangle;connectable=0;fillColor=none;top=0;left=0;bottom=0;right=0;editable=1;overflow=hidden;" parent="lDXIzcax4NrUWh7Z8lVg-58" vertex="1">
          <mxGeometry width="30" height="33" as="geometry" />
        </mxCell>
        <mxCell id="lDXIzcax4NrUWh7Z8lVg-60" value="updated_at" style="shape=partialRectangle;connectable=0;fillColor=none;top=0;left=0;bottom=0;right=0;align=left;spacingLeft=6;overflow=hidden;" parent="lDXIzcax4NrUWh7Z8lVg-58" vertex="1">
          <mxGeometry x="30" width="150" height="33" as="geometry" />
        </mxCell>
        <mxCell id="xhbgUbYrCAmLfJN5bori-1" value="member" style="swimlane;fontStyle=0;childLayout=stackLayout;horizontal=1;startSize=26;horizontalStack=0;resizeParent=1;resizeParentMax=0;resizeLast=0;collapsible=1;marginBottom=0;align=center;fontSize=14;" parent="1" vertex="1">
          <mxGeometry x="620" y="60" width="160" height="290" as="geometry" />
        </mxCell>
        <mxCell id="xhbgUbYrCAmLfJN5bori-2" value="id" style="shape=partialRectangle;top=0;left=0;right=0;bottom=1;align=left;verticalAlign=middle;fillColor=none;spacingLeft=34;spacingRight=4;overflow=hidden;rotatable=0;points=[[0,0.5],[1,0.5]];portConstraint=eastwest;dropTarget=0;fontStyle=5;fontSize=12;" parent="xhbgUbYrCAmLfJN5bori-1" vertex="1">
          <mxGeometry y="26" width="160" height="30" as="geometry" />
        </mxCell>
        <mxCell id="xhbgUbYrCAmLfJN5bori-3" value="PK" style="shape=partialRectangle;top=0;left=0;bottom=0;fillColor=none;align=left;verticalAlign=middle;spacingLeft=4;spacingRight=4;overflow=hidden;rotatable=0;points=[];portConstraint=eastwest;part=1;fontSize=12;" parent="xhbgUbYrCAmLfJN5bori-2" vertex="1" connectable="0">
          <mxGeometry width="30" height="30" as="geometry" />
        </mxCell>
        <mxCell id="xhbgUbYrCAmLfJN5bori-4" value="name" style="shape=partialRectangle;top=0;left=0;right=0;bottom=0;align=left;verticalAlign=top;fillColor=none;spacingLeft=34;spacingRight=4;overflow=hidden;rotatable=0;points=[[0,0.5],[1,0.5]];portConstraint=eastwest;dropTarget=0;fontSize=12;" parent="xhbgUbYrCAmLfJN5bori-1" vertex="1">
          <mxGeometry y="56" width="160" height="26" as="geometry" />
        </mxCell>
        <mxCell id="xhbgUbYrCAmLfJN5bori-5" value="" style="shape=partialRectangle;top=0;left=0;bottom=0;fillColor=none;align=left;verticalAlign=top;spacingLeft=4;spacingRight=4;overflow=hidden;rotatable=0;points=[];portConstraint=eastwest;part=1;fontSize=12;" parent="xhbgUbYrCAmLfJN5bori-4" vertex="1" connectable="0">
          <mxGeometry width="30" height="26" as="geometry" />
        </mxCell>
        <mxCell id="xhbgUbYrCAmLfJN5bori-6" value="mobile" style="shape=partialRectangle;top=0;left=0;right=0;bottom=0;align=left;verticalAlign=top;fillColor=none;spacingLeft=34;spacingRight=4;overflow=hidden;rotatable=0;points=[[0,0.5],[1,0.5]];portConstraint=eastwest;dropTarget=0;fontSize=12;" parent="xhbgUbYrCAmLfJN5bori-1" vertex="1">
          <mxGeometry y="82" width="160" height="26" as="geometry" />
        </mxCell>
        <mxCell id="xhbgUbYrCAmLfJN5bori-7" value="" style="shape=partialRectangle;top=0;left=0;bottom=0;fillColor=none;align=left;verticalAlign=top;spacingLeft=4;spacingRight=4;overflow=hidden;rotatable=0;points=[];portConstraint=eastwest;part=1;fontSize=12;" parent="xhbgUbYrCAmLfJN5bori-6" vertex="1" connectable="0">
          <mxGeometry width="30" height="26" as="geometry" />
        </mxCell>
        <mxCell id="xhbgUbYrCAmLfJN5bori-8" value="email" style="shape=partialRectangle;top=0;left=0;right=0;bottom=0;align=left;verticalAlign=top;fillColor=none;spacingLeft=34;spacingRight=4;overflow=hidden;rotatable=0;points=[[0,0.5],[1,0.5]];portConstraint=eastwest;dropTarget=0;fontSize=12;" parent="xhbgUbYrCAmLfJN5bori-1" vertex="1">
          <mxGeometry y="108" width="160" height="26" as="geometry" />
        </mxCell>
        <mxCell id="xhbgUbYrCAmLfJN5bori-9" value="" style="shape=partialRectangle;top=0;left=0;bottom=0;fillColor=none;align=left;verticalAlign=top;spacingLeft=4;spacingRight=4;overflow=hidden;rotatable=0;points=[];portConstraint=eastwest;part=1;fontSize=12;" parent="xhbgUbYrCAmLfJN5bori-8" vertex="1" connectable="0">
          <mxGeometry width="30" height="26" as="geometry" />
        </mxCell>
        <mxCell id="xhbgUbYrCAmLfJN5bori-14" value="avatar_url" style="shape=partialRectangle;top=0;left=0;right=0;bottom=0;align=left;verticalAlign=top;fillColor=none;spacingLeft=34;spacingRight=4;overflow=hidden;rotatable=0;points=[[0,0.5],[1,0.5]];portConstraint=eastwest;dropTarget=0;fontSize=12;" parent="xhbgUbYrCAmLfJN5bori-1" vertex="1">
          <mxGeometry y="134" width="160" height="26" as="geometry" />
        </mxCell>
        <mxCell id="xhbgUbYrCAmLfJN5bori-15" value="" style="shape=partialRectangle;top=0;left=0;bottom=0;fillColor=none;align=left;verticalAlign=top;spacingLeft=4;spacingRight=4;overflow=hidden;rotatable=0;points=[];portConstraint=eastwest;part=1;fontSize=12;" parent="xhbgUbYrCAmLfJN5bori-14" vertex="1" connectable="0">
          <mxGeometry width="30" height="26" as="geometry" />
        </mxCell>
        <mxCell id="xhbgUbYrCAmLfJN5bori-16" value="age" style="shape=partialRectangle;top=0;left=0;right=0;bottom=0;align=left;verticalAlign=top;fillColor=none;spacingLeft=34;spacingRight=4;overflow=hidden;rotatable=0;points=[[0,0.5],[1,0.5]];portConstraint=eastwest;dropTarget=0;fontSize=12;" parent="xhbgUbYrCAmLfJN5bori-1" vertex="1">
          <mxGeometry y="160" width="160" height="26" as="geometry" />
        </mxCell>
        <mxCell id="xhbgUbYrCAmLfJN5bori-17" value="" style="shape=partialRectangle;top=0;left=0;bottom=0;fillColor=none;align=left;verticalAlign=top;spacingLeft=4;spacingRight=4;overflow=hidden;rotatable=0;points=[];portConstraint=eastwest;part=1;fontSize=12;" parent="xhbgUbYrCAmLfJN5bori-16" vertex="1" connectable="0">
          <mxGeometry width="30" height="26" as="geometry" />
        </mxCell>
        <mxCell id="xhbgUbYrCAmLfJN5bori-18" value="gender" style="shape=partialRectangle;top=0;left=0;right=0;bottom=0;align=left;verticalAlign=top;fillColor=none;spacingLeft=34;spacingRight=4;overflow=hidden;rotatable=0;points=[[0,0.5],[1,0.5]];portConstraint=eastwest;dropTarget=0;fontSize=12;" parent="xhbgUbYrCAmLfJN5bori-1" vertex="1">
          <mxGeometry y="186" width="160" height="26" as="geometry" />
        </mxCell>
        <mxCell id="xhbgUbYrCAmLfJN5bori-19" value="" style="shape=partialRectangle;top=0;left=0;bottom=0;fillColor=none;align=left;verticalAlign=top;spacingLeft=4;spacingRight=4;overflow=hidden;rotatable=0;points=[];portConstraint=eastwest;part=1;fontSize=12;" parent="xhbgUbYrCAmLfJN5bori-18" vertex="1" connectable="0">
          <mxGeometry width="30" height="26" as="geometry" />
        </mxCell>
        <mxCell id="xhbgUbYrCAmLfJN5bori-20" value="balance" style="shape=partialRectangle;top=0;left=0;right=0;bottom=0;align=left;verticalAlign=top;fillColor=none;spacingLeft=34;spacingRight=4;overflow=hidden;rotatable=0;points=[[0,0.5],[1,0.5]];portConstraint=eastwest;dropTarget=0;fontSize=12;" parent="xhbgUbYrCAmLfJN5bori-1" vertex="1">
          <mxGeometry y="212" width="160" height="26" as="geometry" />
        </mxCell>
        <mxCell id="xhbgUbYrCAmLfJN5bori-21" value="" style="shape=partialRectangle;top=0;left=0;bottom=0;fillColor=none;align=left;verticalAlign=top;spacingLeft=4;spacingRight=4;overflow=hidden;rotatable=0;points=[];portConstraint=eastwest;part=1;fontSize=12;" parent="xhbgUbYrCAmLfJN5bori-20" vertex="1" connectable="0">
          <mxGeometry width="30" height="26" as="geometry" />
        </mxCell>
        <mxCell id="xhbgUbYrCAmLfJN5bori-22" value="created_at" style="shape=partialRectangle;top=0;left=0;right=0;bottom=0;align=left;verticalAlign=top;fillColor=none;spacingLeft=34;spacingRight=4;overflow=hidden;rotatable=0;points=[[0,0.5],[1,0.5]];portConstraint=eastwest;dropTarget=0;fontSize=12;" parent="xhbgUbYrCAmLfJN5bori-1" vertex="1">
          <mxGeometry y="238" width="160" height="26" as="geometry" />
        </mxCell>
        <mxCell id="xhbgUbYrCAmLfJN5bori-23" value="" style="shape=partialRectangle;top=0;left=0;bottom=0;fillColor=none;align=left;verticalAlign=top;spacingLeft=4;spacingRight=4;overflow=hidden;rotatable=0;points=[];portConstraint=eastwest;part=1;fontSize=12;" parent="xhbgUbYrCAmLfJN5bori-22" vertex="1" connectable="0">
          <mxGeometry width="30" height="26" as="geometry" />
        </mxCell>
        <mxCell id="xhbgUbYrCAmLfJN5bori-24" value="updated_at" style="shape=partialRectangle;top=0;left=0;right=0;bottom=0;align=left;verticalAlign=top;fillColor=none;spacingLeft=34;spacingRight=4;overflow=hidden;rotatable=0;points=[[0,0.5],[1,0.5]];portConstraint=eastwest;dropTarget=0;fontSize=12;" parent="xhbgUbYrCAmLfJN5bori-1" vertex="1">
          <mxGeometry y="264" width="160" height="26" as="geometry" />
        </mxCell>
        <mxCell id="xhbgUbYrCAmLfJN5bori-25" value="" style="shape=partialRectangle;top=0;left=0;bottom=0;fillColor=none;align=left;verticalAlign=top;spacingLeft=4;spacingRight=4;overflow=hidden;rotatable=0;points=[];portConstraint=eastwest;part=1;fontSize=12;" parent="xhbgUbYrCAmLfJN5bori-24" vertex="1" connectable="0">
          <mxGeometry width="30" height="26" as="geometry" />
        </mxCell>
        <mxCell id="sUH3_GQScgaXIJGSFh3w-1" value="account" style="shape=table;startSize=30;container=1;collapsible=1;childLayout=tableLayout;fixedRows=1;rowLines=0;fontStyle=1;align=center;resizeLast=1;" vertex="1" parent="1">
          <mxGeometry x="810" y="60" width="180" height="250" as="geometry" />
        </mxCell>
        <mxCell id="sUH3_GQScgaXIJGSFh3w-2" value="" style="shape=partialRectangle;collapsible=0;dropTarget=0;pointerEvents=0;fillColor=none;top=0;left=0;bottom=1;right=0;points=[[0,0.5],[1,0.5]];portConstraint=eastwest;" vertex="1" parent="sUH3_GQScgaXIJGSFh3w-1">
          <mxGeometry y="30" width="180" height="30" as="geometry" />
        </mxCell>
        <mxCell id="sUH3_GQScgaXIJGSFh3w-3" value="PK" style="shape=partialRectangle;connectable=0;fillColor=none;top=0;left=0;bottom=0;right=0;fontStyle=1;overflow=hidden;" vertex="1" parent="sUH3_GQScgaXIJGSFh3w-2">
          <mxGeometry width="30" height="30" as="geometry" />
        </mxCell>
        <mxCell id="sUH3_GQScgaXIJGSFh3w-4" value="id" style="shape=partialRectangle;connectable=0;fillColor=none;top=0;left=0;bottom=0;right=0;align=left;spacingLeft=6;fontStyle=5;overflow=hidden;" vertex="1" parent="sUH3_GQScgaXIJGSFh3w-2">
          <mxGeometry x="30" width="150" height="30" as="geometry" />
        </mxCell>
        <mxCell id="sUH3_GQScgaXIJGSFh3w-5" value="" style="shape=partialRectangle;collapsible=0;dropTarget=0;pointerEvents=0;fillColor=none;top=0;left=0;bottom=0;right=0;points=[[0,0.5],[1,0.5]];portConstraint=eastwest;" vertex="1" parent="sUH3_GQScgaXIJGSFh3w-1">
          <mxGeometry y="60" width="180" height="30" as="geometry" />
        </mxCell>
        <mxCell id="sUH3_GQScgaXIJGSFh3w-6" value="" style="shape=partialRectangle;connectable=0;fillColor=none;top=0;left=0;bottom=0;right=0;editable=1;overflow=hidden;" vertex="1" parent="sUH3_GQScgaXIJGSFh3w-5">
          <mxGeometry width="30" height="30" as="geometry" />
        </mxCell>
        <mxCell id="sUH3_GQScgaXIJGSFh3w-7" value="email" style="shape=partialRectangle;connectable=0;fillColor=none;top=0;left=0;bottom=0;right=0;align=left;spacingLeft=6;overflow=hidden;" vertex="1" parent="sUH3_GQScgaXIJGSFh3w-5">
          <mxGeometry x="30" width="150" height="30" as="geometry" />
        </mxCell>
        <mxCell id="sUH3_GQScgaXIJGSFh3w-8" value="" style="shape=partialRectangle;collapsible=0;dropTarget=0;pointerEvents=0;fillColor=none;top=0;left=0;bottom=0;right=0;points=[[0,0.5],[1,0.5]];portConstraint=eastwest;" vertex="1" parent="sUH3_GQScgaXIJGSFh3w-1">
          <mxGeometry y="90" width="180" height="30" as="geometry" />
        </mxCell>
        <mxCell id="sUH3_GQScgaXIJGSFh3w-9" value="" style="shape=partialRectangle;connectable=0;fillColor=none;top=0;left=0;bottom=0;right=0;editable=1;overflow=hidden;" vertex="1" parent="sUH3_GQScgaXIJGSFh3w-8">
          <mxGeometry width="30" height="30" as="geometry" />
        </mxCell>
        <mxCell id="sUH3_GQScgaXIJGSFh3w-10" value="password" style="shape=partialRectangle;connectable=0;fillColor=none;top=0;left=0;bottom=0;right=0;align=left;spacingLeft=6;overflow=hidden;" vertex="1" parent="sUH3_GQScgaXIJGSFh3w-8">
          <mxGeometry x="30" width="150" height="30" as="geometry" />
        </mxCell>
        <mxCell id="sUH3_GQScgaXIJGSFh3w-11" value="" style="shape=partialRectangle;collapsible=0;dropTarget=0;pointerEvents=0;fillColor=none;top=0;left=0;bottom=0;right=0;points=[[0,0.5],[1,0.5]];portConstraint=eastwest;" vertex="1" parent="sUH3_GQScgaXIJGSFh3w-1">
          <mxGeometry y="120" width="180" height="30" as="geometry" />
        </mxCell>
        <mxCell id="sUH3_GQScgaXIJGSFh3w-12" value="" style="shape=partialRectangle;connectable=0;fillColor=none;top=0;left=0;bottom=0;right=0;editable=1;overflow=hidden;" vertex="1" parent="sUH3_GQScgaXIJGSFh3w-11">
          <mxGeometry width="30" height="30" as="geometry" />
        </mxCell>
        <mxCell id="sUH3_GQScgaXIJGSFh3w-13" value="role" style="shape=partialRectangle;connectable=0;fillColor=none;top=0;left=0;bottom=0;right=0;align=left;spacingLeft=6;overflow=hidden;" vertex="1" parent="sUH3_GQScgaXIJGSFh3w-11">
          <mxGeometry x="30" width="150" height="30" as="geometry" />
        </mxCell>
        <mxCell id="sUH3_GQScgaXIJGSFh3w-14" value="" style="shape=partialRectangle;collapsible=0;dropTarget=0;pointerEvents=0;fillColor=none;top=0;left=0;bottom=0;right=0;points=[[0,0.5],[1,0.5]];portConstraint=eastwest;" vertex="1" parent="sUH3_GQScgaXIJGSFh3w-1">
          <mxGeometry y="150" width="180" height="30" as="geometry" />
        </mxCell>
        <mxCell id="sUH3_GQScgaXIJGSFh3w-15" value="" style="shape=partialRectangle;connectable=0;fillColor=none;top=0;left=0;bottom=0;right=0;editable=1;overflow=hidden;" vertex="1" parent="sUH3_GQScgaXIJGSFh3w-14">
          <mxGeometry width="30" height="30" as="geometry" />
        </mxCell>
        <mxCell id="sUH3_GQScgaXIJGSFh3w-16" value="name" style="shape=partialRectangle;connectable=0;fillColor=none;top=0;left=0;bottom=0;right=0;align=left;spacingLeft=6;overflow=hidden;" vertex="1" parent="sUH3_GQScgaXIJGSFh3w-14">
          <mxGeometry x="30" width="150" height="30" as="geometry" />
        </mxCell>
        <mxCell id="sUH3_GQScgaXIJGSFh3w-17" value="" style="shape=partialRectangle;collapsible=0;dropTarget=0;pointerEvents=0;fillColor=none;top=0;left=0;bottom=0;right=0;points=[[0,0.5],[1,0.5]];portConstraint=eastwest;" vertex="1" parent="sUH3_GQScgaXIJGSFh3w-1">
          <mxGeometry y="180" width="180" height="30" as="geometry" />
        </mxCell>
        <mxCell id="sUH3_GQScgaXIJGSFh3w-18" value="" style="shape=partialRectangle;connectable=0;fillColor=none;top=0;left=0;bottom=0;right=0;editable=1;overflow=hidden;" vertex="1" parent="sUH3_GQScgaXIJGSFh3w-17">
          <mxGeometry width="30" height="30" as="geometry" />
        </mxCell>
        <mxCell id="sUH3_GQScgaXIJGSFh3w-19" value="created_at" style="shape=partialRectangle;connectable=0;fillColor=none;top=0;left=0;bottom=0;right=0;align=left;spacingLeft=6;overflow=hidden;" vertex="1" parent="sUH3_GQScgaXIJGSFh3w-17">
          <mxGeometry x="30" width="150" height="30" as="geometry" />
        </mxCell>
        <mxCell id="sUH3_GQScgaXIJGSFh3w-20" value="" style="shape=partialRectangle;collapsible=0;dropTarget=0;pointerEvents=0;fillColor=none;top=0;left=0;bottom=0;right=0;points=[[0,0.5],[1,0.5]];portConstraint=eastwest;" vertex="1" parent="sUH3_GQScgaXIJGSFh3w-1">
          <mxGeometry y="210" width="180" height="30" as="geometry" />
        </mxCell>
        <mxCell id="sUH3_GQScgaXIJGSFh3w-21" value="" style="shape=partialRectangle;connectable=0;fillColor=none;top=0;left=0;bottom=0;right=0;editable=1;overflow=hidden;" vertex="1" parent="sUH3_GQScgaXIJGSFh3w-20">
          <mxGeometry width="30" height="30" as="geometry" />
        </mxCell>
        <mxCell id="sUH3_GQScgaXIJGSFh3w-22" value="uopdate_at" style="shape=partialRectangle;connectable=0;fillColor=none;top=0;left=0;bottom=0;right=0;align=left;spacingLeft=6;overflow=hidden;" vertex="1" parent="sUH3_GQScgaXIJGSFh3w-20">
          <mxGeometry x="30" width="150" height="30" as="geometry" />
        </mxCell>
        <mxCell id="sUH3_GQScgaXIJGSFh3w-26" value="order" style="shape=table;startSize=30;container=1;collapsible=1;childLayout=tableLayout;fixedRows=1;rowLines=0;fontStyle=1;align=center;resizeLast=1;" vertex="1" parent="1">
          <mxGeometry x="620" y="385" width="180" height="520" as="geometry" />
        </mxCell>
        <mxCell id="sUH3_GQScgaXIJGSFh3w-27" value="" style="shape=partialRectangle;collapsible=0;dropTarget=0;pointerEvents=0;fillColor=none;top=0;left=0;bottom=1;right=0;points=[[0,0.5],[1,0.5]];portConstraint=eastwest;" vertex="1" parent="sUH3_GQScgaXIJGSFh3w-26">
          <mxGeometry y="30" width="180" height="30" as="geometry" />
        </mxCell>
        <mxCell id="sUH3_GQScgaXIJGSFh3w-28" value="PK" style="shape=partialRectangle;connectable=0;fillColor=none;top=0;left=0;bottom=0;right=0;fontStyle=1;overflow=hidden;" vertex="1" parent="sUH3_GQScgaXIJGSFh3w-27">
          <mxGeometry width="30" height="30" as="geometry" />
        </mxCell>
        <mxCell id="sUH3_GQScgaXIJGSFh3w-29" value="id" style="shape=partialRectangle;connectable=0;fillColor=none;top=0;left=0;bottom=0;right=0;align=left;spacingLeft=6;fontStyle=5;overflow=hidden;" vertex="1" parent="sUH3_GQScgaXIJGSFh3w-27">
          <mxGeometry x="30" width="150" height="30" as="geometry" />
        </mxCell>
        <mxCell id="sUH3_GQScgaXIJGSFh3w-30" value="" style="shape=partialRectangle;collapsible=0;dropTarget=0;pointerEvents=0;fillColor=none;top=0;left=0;bottom=0;right=0;points=[[0,0.5],[1,0.5]];portConstraint=eastwest;" vertex="1" parent="sUH3_GQScgaXIJGSFh3w-26">
          <mxGeometry y="60" width="180" height="30" as="geometry" />
        </mxCell>
        <mxCell id="sUH3_GQScgaXIJGSFh3w-31" value="" style="shape=partialRectangle;connectable=0;fillColor=none;top=0;left=0;bottom=0;right=0;editable=1;overflow=hidden;" vertex="1" parent="sUH3_GQScgaXIJGSFh3w-30">
          <mxGeometry width="30" height="30" as="geometry" />
        </mxCell>
        <mxCell id="sUH3_GQScgaXIJGSFh3w-32" value="member_id" style="shape=partialRectangle;connectable=0;fillColor=none;top=0;left=0;bottom=0;right=0;align=left;spacingLeft=6;overflow=hidden;" vertex="1" parent="sUH3_GQScgaXIJGSFh3w-30">
          <mxGeometry x="30" width="150" height="30" as="geometry" />
        </mxCell>
        <mxCell id="sUH3_GQScgaXIJGSFh3w-33" value="" style="shape=partialRectangle;collapsible=0;dropTarget=0;pointerEvents=0;fillColor=none;top=0;left=0;bottom=0;right=0;points=[[0,0.5],[1,0.5]];portConstraint=eastwest;" vertex="1" parent="sUH3_GQScgaXIJGSFh3w-26">
          <mxGeometry y="90" width="180" height="30" as="geometry" />
        </mxCell>
        <mxCell id="sUH3_GQScgaXIJGSFh3w-34" value="" style="shape=partialRectangle;connectable=0;fillColor=none;top=0;left=0;bottom=0;right=0;editable=1;overflow=hidden;" vertex="1" parent="sUH3_GQScgaXIJGSFh3w-33">
          <mxGeometry width="30" height="30" as="geometry" />
        </mxCell>
        <mxCell id="sUH3_GQScgaXIJGSFh3w-35" value="vehicle_id" style="shape=partialRectangle;connectable=0;fillColor=none;top=0;left=0;bottom=0;right=0;align=left;spacingLeft=6;overflow=hidden;" vertex="1" parent="sUH3_GQScgaXIJGSFh3w-33">
          <mxGeometry x="30" width="150" height="30" as="geometry" />
        </mxCell>
        <mxCell id="sUH3_GQScgaXIJGSFh3w-36" value="" style="shape=partialRectangle;collapsible=0;dropTarget=0;pointerEvents=0;fillColor=none;top=0;left=0;bottom=0;right=0;points=[[0,0.5],[1,0.5]];portConstraint=eastwest;" vertex="1" parent="sUH3_GQScgaXIJGSFh3w-26">
          <mxGeometry y="120" width="180" height="30" as="geometry" />
        </mxCell>
        <mxCell id="sUH3_GQScgaXIJGSFh3w-37" value="" style="shape=partialRectangle;connectable=0;fillColor=none;top=0;left=0;bottom=0;right=0;editable=1;overflow=hidden;" vertex="1" parent="sUH3_GQScgaXIJGSFh3w-36">
          <mxGeometry width="30" height="30" as="geometry" />
        </mxCell>
        <mxCell id="sUH3_GQScgaXIJGSFh3w-38" value="status" style="shape=partialRectangle;connectable=0;fillColor=none;top=0;left=0;bottom=0;right=0;align=left;spacingLeft=6;overflow=hidden;" vertex="1" parent="sUH3_GQScgaXIJGSFh3w-36">
          <mxGeometry x="30" width="150" height="30" as="geometry" />
        </mxCell>
        <mxCell id="sUH3_GQScgaXIJGSFh3w-39" value="" style="shape=partialRectangle;collapsible=0;dropTarget=0;pointerEvents=0;fillColor=none;top=0;left=0;bottom=0;right=0;points=[[0,0.5],[1,0.5]];portConstraint=eastwest;" vertex="1" parent="sUH3_GQScgaXIJGSFh3w-26">
          <mxGeometry y="150" width="180" height="30" as="geometry" />
        </mxCell>
        <mxCell id="sUH3_GQScgaXIJGSFh3w-40" value="" style="shape=partialRectangle;connectable=0;fillColor=none;top=0;left=0;bottom=0;right=0;editable=1;overflow=hidden;" vertex="1" parent="sUH3_GQScgaXIJGSFh3w-39">
          <mxGeometry width="30" height="30" as="geometry" />
        </mxCell>
        <mxCell id="sUH3_GQScgaXIJGSFh3w-41" value="estimated_distance" style="shape=partialRectangle;connectable=0;fillColor=none;top=0;left=0;bottom=0;right=0;align=left;spacingLeft=6;overflow=hidden;" vertex="1" parent="sUH3_GQScgaXIJGSFh3w-39">
          <mxGeometry x="30" width="150" height="30" as="geometry" />
        </mxCell>
        <mxCell id="sUH3_GQScgaXIJGSFh3w-42" value="" style="shape=partialRectangle;collapsible=0;dropTarget=0;pointerEvents=0;fillColor=none;top=0;left=0;bottom=0;right=0;points=[[0,0.5],[1,0.5]];portConstraint=eastwest;" vertex="1" parent="sUH3_GQScgaXIJGSFh3w-26">
          <mxGeometry y="180" width="180" height="30" as="geometry" />
        </mxCell>
        <mxCell id="sUH3_GQScgaXIJGSFh3w-43" value="" style="shape=partialRectangle;connectable=0;fillColor=none;top=0;left=0;bottom=0;right=0;editable=1;overflow=hidden;" vertex="1" parent="sUH3_GQScgaXIJGSFh3w-42">
          <mxGeometry width="30" height="30" as="geometry" />
        </mxCell>
        <mxCell id="sUH3_GQScgaXIJGSFh3w-44" value="distance" style="shape=partialRectangle;connectable=0;fillColor=none;top=0;left=0;bottom=0;right=0;align=left;spacingLeft=6;overflow=hidden;" vertex="1" parent="sUH3_GQScgaXIJGSFh3w-42">
          <mxGeometry x="30" width="150" height="30" as="geometry" />
        </mxCell>
        <mxCell id="sUH3_GQScgaXIJGSFh3w-45" value="" style="shape=partialRectangle;collapsible=0;dropTarget=0;pointerEvents=0;fillColor=none;top=0;left=0;bottom=0;right=0;points=[[0,0.5],[1,0.5]];portConstraint=eastwest;" vertex="1" parent="sUH3_GQScgaXIJGSFh3w-26">
          <mxGeometry y="210" width="180" height="30" as="geometry" />
        </mxCell>
        <mxCell id="sUH3_GQScgaXIJGSFh3w-46" value="" style="shape=partialRectangle;connectable=0;fillColor=none;top=0;left=0;bottom=0;right=0;editable=1;overflow=hidden;" vertex="1" parent="sUH3_GQScgaXIJGSFh3w-45">
          <mxGeometry width="30" height="30" as="geometry" />
        </mxCell>
        <mxCell id="sUH3_GQScgaXIJGSFh3w-47" value="price" style="shape=partialRectangle;connectable=0;fillColor=none;top=0;left=0;bottom=0;right=0;align=left;spacingLeft=6;overflow=hidden;" vertex="1" parent="sUH3_GQScgaXIJGSFh3w-45">
          <mxGeometry x="30" width="150" height="30" as="geometry" />
        </mxCell>
        <mxCell id="sUH3_GQScgaXIJGSFh3w-48" value="" style="shape=partialRectangle;collapsible=0;dropTarget=0;pointerEvents=0;fillColor=none;top=0;left=0;bottom=0;right=0;points=[[0,0.5],[1,0.5]];portConstraint=eastwest;" vertex="1" parent="sUH3_GQScgaXIJGSFh3w-26">
          <mxGeometry y="240" width="180" height="30" as="geometry" />
        </mxCell>
        <mxCell id="sUH3_GQScgaXIJGSFh3w-49" value="" style="shape=partialRectangle;connectable=0;fillColor=none;top=0;left=0;bottom=0;right=0;editable=1;overflow=hidden;" vertex="1" parent="sUH3_GQScgaXIJGSFh3w-48">
          <mxGeometry width="30" height="30" as="geometry" />
        </mxCell>
        <mxCell id="sUH3_GQScgaXIJGSFh3w-50" value="pay_price" style="shape=partialRectangle;connectable=0;fillColor=none;top=0;left=0;bottom=0;right=0;align=left;spacingLeft=6;overflow=hidden;" vertex="1" parent="sUH3_GQScgaXIJGSFh3w-48">
          <mxGeometry x="30" width="150" height="30" as="geometry" />
        </mxCell>
        <mxCell id="sUH3_GQScgaXIJGSFh3w-51" value="" style="shape=partialRectangle;collapsible=0;dropTarget=0;pointerEvents=0;fillColor=none;top=0;left=0;bottom=0;right=0;points=[[0,0.5],[1,0.5]];portConstraint=eastwest;" vertex="1" parent="sUH3_GQScgaXIJGSFh3w-26">
          <mxGeometry y="270" width="180" height="30" as="geometry" />
        </mxCell>
        <mxCell id="sUH3_GQScgaXIJGSFh3w-52" value="" style="shape=partialRectangle;connectable=0;fillColor=none;top=0;left=0;bottom=0;right=0;editable=1;overflow=hidden;" vertex="1" parent="sUH3_GQScgaXIJGSFh3w-51">
          <mxGeometry width="30" height="30" as="geometry" />
        </mxCell>
        <mxCell id="sUH3_GQScgaXIJGSFh3w-53" value="ori_point" style="shape=partialRectangle;connectable=0;fillColor=none;top=0;left=0;bottom=0;right=0;align=left;spacingLeft=6;overflow=hidden;" vertex="1" parent="sUH3_GQScgaXIJGSFh3w-51">
          <mxGeometry x="30" width="150" height="30" as="geometry" />
        </mxCell>
        <mxCell id="sUH3_GQScgaXIJGSFh3w-54" value="" style="shape=partialRectangle;collapsible=0;dropTarget=0;pointerEvents=0;fillColor=none;top=0;left=0;bottom=0;right=0;points=[[0,0.5],[1,0.5]];portConstraint=eastwest;" vertex="1" parent="sUH3_GQScgaXIJGSFh3w-26">
          <mxGeometry y="300" width="180" height="30" as="geometry" />
        </mxCell>
        <mxCell id="sUH3_GQScgaXIJGSFh3w-55" value="" style="shape=partialRectangle;connectable=0;fillColor=none;top=0;left=0;bottom=0;right=0;editable=1;overflow=hidden;" vertex="1" parent="sUH3_GQScgaXIJGSFh3w-54">
          <mxGeometry width="30" height="30" as="geometry" />
        </mxCell>
        <mxCell id="sUH3_GQScgaXIJGSFh3w-56" value="des_point" style="shape=partialRectangle;connectable=0;fillColor=none;top=0;left=0;bottom=0;right=0;align=left;spacingLeft=6;overflow=hidden;" vertex="1" parent="sUH3_GQScgaXIJGSFh3w-54">
          <mxGeometry x="30" width="150" height="30" as="geometry" />
        </mxCell>
        <mxCell id="sUH3_GQScgaXIJGSFh3w-60" value="" style="shape=partialRectangle;collapsible=0;dropTarget=0;pointerEvents=0;fillColor=none;top=0;left=0;bottom=0;right=0;points=[[0,0.5],[1,0.5]];portConstraint=eastwest;" vertex="1" parent="sUH3_GQScgaXIJGSFh3w-26">
          <mxGeometry y="330" width="180" height="30" as="geometry" />
        </mxCell>
        <mxCell id="sUH3_GQScgaXIJGSFh3w-61" value="" style="shape=partialRectangle;connectable=0;fillColor=none;top=0;left=0;bottom=0;right=0;editable=1;overflow=hidden;" vertex="1" parent="sUH3_GQScgaXIJGSFh3w-60">
          <mxGeometry width="30" height="30" as="geometry" />
        </mxCell>
        <mxCell id="sUH3_GQScgaXIJGSFh3w-62" value="assigned_at" style="shape=partialRectangle;connectable=0;fillColor=none;top=0;left=0;bottom=0;right=0;align=left;spacingLeft=6;overflow=hidden;" vertex="1" parent="sUH3_GQScgaXIJGSFh3w-60">
          <mxGeometry x="30" width="150" height="30" as="geometry" />
        </mxCell>
        <mxCell id="sUH3_GQScgaXIJGSFh3w-66" value="" style="shape=partialRectangle;collapsible=0;dropTarget=0;pointerEvents=0;fillColor=none;top=0;left=0;bottom=0;right=0;points=[[0,0.5],[1,0.5]];portConstraint=eastwest;" vertex="1" parent="sUH3_GQScgaXIJGSFh3w-26">
          <mxGeometry y="360" width="180" height="30" as="geometry" />
        </mxCell>
        <mxCell id="sUH3_GQScgaXIJGSFh3w-67" value="" style="shape=partialRectangle;connectable=0;fillColor=none;top=0;left=0;bottom=0;right=0;editable=1;overflow=hidden;" vertex="1" parent="sUH3_GQScgaXIJGSFh3w-66">
          <mxGeometry width="30" height="30" as="geometry" />
        </mxCell>
        <mxCell id="sUH3_GQScgaXIJGSFh3w-68" value="ended_at" style="shape=partialRectangle;connectable=0;fillColor=none;top=0;left=0;bottom=0;right=0;align=left;spacingLeft=6;overflow=hidden;" vertex="1" parent="sUH3_GQScgaXIJGSFh3w-66">
          <mxGeometry x="30" width="150" height="30" as="geometry" />
        </mxCell>
        <mxCell id="sUH3_GQScgaXIJGSFh3w-69" value="" style="shape=partialRectangle;collapsible=0;dropTarget=0;pointerEvents=0;fillColor=none;top=0;left=0;bottom=0;right=0;points=[[0,0.5],[1,0.5]];portConstraint=eastwest;" vertex="1" parent="sUH3_GQScgaXIJGSFh3w-26">
          <mxGeometry y="390" width="180" height="30" as="geometry" />
        </mxCell>
        <mxCell id="sUH3_GQScgaXIJGSFh3w-70" value="" style="shape=partialRectangle;connectable=0;fillColor=none;top=0;left=0;bottom=0;right=0;editable=1;overflow=hidden;" vertex="1" parent="sUH3_GQScgaXIJGSFh3w-69">
          <mxGeometry width="30" height="30" as="geometry" />
        </mxCell>
        <mxCell id="sUH3_GQScgaXIJGSFh3w-71" value="order_no" style="shape=partialRectangle;connectable=0;fillColor=none;top=0;left=0;bottom=0;right=0;align=left;spacingLeft=6;overflow=hidden;" vertex="1" parent="sUH3_GQScgaXIJGSFh3w-69">
          <mxGeometry x="30" width="150" height="30" as="geometry" />
        </mxCell>
        <mxCell id="sUH3_GQScgaXIJGSFh3w-72" value="" style="shape=partialRectangle;collapsible=0;dropTarget=0;pointerEvents=0;fillColor=none;top=0;left=0;bottom=0;right=0;points=[[0,0.5],[1,0.5]];portConstraint=eastwest;" vertex="1" parent="sUH3_GQScgaXIJGSFh3w-26">
          <mxGeometry y="420" width="180" height="30" as="geometry" />
        </mxCell>
        <mxCell id="sUH3_GQScgaXIJGSFh3w-73" value="" style="shape=partialRectangle;connectable=0;fillColor=none;top=0;left=0;bottom=0;right=0;editable=1;overflow=hidden;" vertex="1" parent="sUH3_GQScgaXIJGSFh3w-72">
          <mxGeometry width="30" height="30" as="geometry" />
        </mxCell>
        <mxCell id="sUH3_GQScgaXIJGSFh3w-74" value="status" style="shape=partialRectangle;connectable=0;fillColor=none;top=0;left=0;bottom=0;right=0;align=left;spacingLeft=6;overflow=hidden;" vertex="1" parent="sUH3_GQScgaXIJGSFh3w-72">
          <mxGeometry x="30" width="150" height="30" as="geometry" />
        </mxCell>
        <mxCell id="sUH3_GQScgaXIJGSFh3w-57" value="" style="shape=partialRectangle;collapsible=0;dropTarget=0;pointerEvents=0;fillColor=none;top=0;left=0;bottom=0;right=0;points=[[0,0.5],[1,0.5]];portConstraint=eastwest;" vertex="1" parent="sUH3_GQScgaXIJGSFh3w-26">
          <mxGeometry y="450" width="180" height="30" as="geometry" />
        </mxCell>
        <mxCell id="sUH3_GQScgaXIJGSFh3w-58" value="" style="shape=partialRectangle;connectable=0;fillColor=none;top=0;left=0;bottom=0;right=0;editable=1;overflow=hidden;" vertex="1" parent="sUH3_GQScgaXIJGSFh3w-57">
          <mxGeometry width="30" height="30" as="geometry" />
        </mxCell>
        <mxCell id="sUH3_GQScgaXIJGSFh3w-59" value="created_at" style="shape=partialRectangle;connectable=0;fillColor=none;top=0;left=0;bottom=0;right=0;align=left;spacingLeft=6;overflow=hidden;" vertex="1" parent="sUH3_GQScgaXIJGSFh3w-57">
          <mxGeometry x="30" width="150" height="30" as="geometry" />
        </mxCell>
        <mxCell id="sUH3_GQScgaXIJGSFh3w-63" value="" style="shape=partialRectangle;collapsible=0;dropTarget=0;pointerEvents=0;fillColor=none;top=0;left=0;bottom=0;right=0;points=[[0,0.5],[1,0.5]];portConstraint=eastwest;" vertex="1" parent="sUH3_GQScgaXIJGSFh3w-26">
          <mxGeometry y="480" width="180" height="30" as="geometry" />
        </mxCell>
        <mxCell id="sUH3_GQScgaXIJGSFh3w-64" value="" style="shape=partialRectangle;connectable=0;fillColor=none;top=0;left=0;bottom=0;right=0;editable=1;overflow=hidden;" vertex="1" parent="sUH3_GQScgaXIJGSFh3w-63">
          <mxGeometry width="30" height="30" as="geometry" />
        </mxCell>
        <mxCell id="sUH3_GQScgaXIJGSFh3w-65" value="updated_at" style="shape=partialRectangle;connectable=0;fillColor=none;top=0;left=0;bottom=0;right=0;align=left;spacingLeft=6;overflow=hidden;" vertex="1" parent="sUH3_GQScgaXIJGSFh3w-63">
          <mxGeometry x="30" width="150" height="30" as="geometry" />
        </mxCell>
        <mxCell id="sUH3_GQScgaXIJGSFh3w-88" value="simulation_vehicle" style="shape=table;startSize=30;container=1;collapsible=1;childLayout=tableLayout;fixedRows=1;rowLines=0;fontStyle=1;align=center;resizeLast=1;" vertex="1" parent="1">
          <mxGeometry x="-30" y="60" width="180" height="280" as="geometry" />
        </mxCell>
        <mxCell id="sUH3_GQScgaXIJGSFh3w-89" value="" style="shape=partialRectangle;collapsible=0;dropTarget=0;pointerEvents=0;fillColor=none;top=0;left=0;bottom=1;right=0;points=[[0,0.5],[1,0.5]];portConstraint=eastwest;" vertex="1" parent="sUH3_GQScgaXIJGSFh3w-88">
          <mxGeometry y="30" width="180" height="30" as="geometry" />
        </mxCell>
        <mxCell id="sUH3_GQScgaXIJGSFh3w-90" value="PK" style="shape=partialRectangle;connectable=0;fillColor=none;top=0;left=0;bottom=0;right=0;fontStyle=1;overflow=hidden;" vertex="1" parent="sUH3_GQScgaXIJGSFh3w-89">
          <mxGeometry width="30" height="30" as="geometry" />
        </mxCell>
        <mxCell id="sUH3_GQScgaXIJGSFh3w-91" value="id" style="shape=partialRectangle;connectable=0;fillColor=none;top=0;left=0;bottom=0;right=0;align=left;spacingLeft=6;fontStyle=5;overflow=hidden;" vertex="1" parent="sUH3_GQScgaXIJGSFh3w-89">
          <mxGeometry x="30" width="150" height="30" as="geometry" />
        </mxCell>
        <mxCell id="sUH3_GQScgaXIJGSFh3w-92" value="" style="shape=partialRectangle;collapsible=0;dropTarget=0;pointerEvents=0;fillColor=none;top=0;left=0;bottom=0;right=0;points=[[0,0.5],[1,0.5]];portConstraint=eastwest;" vertex="1" parent="sUH3_GQScgaXIJGSFh3w-88">
          <mxGeometry y="60" width="180" height="30" as="geometry" />
        </mxCell>
        <mxCell id="sUH3_GQScgaXIJGSFh3w-93" value="" style="shape=partialRectangle;connectable=0;fillColor=none;top=0;left=0;bottom=0;right=0;editable=1;overflow=hidden;" vertex="1" parent="sUH3_GQScgaXIJGSFh3w-92">
          <mxGeometry width="30" height="30" as="geometry" />
        </mxCell>
        <mxCell id="sUH3_GQScgaXIJGSFh3w-94" value="vehicle_id" style="shape=partialRectangle;connectable=0;fillColor=none;top=0;left=0;bottom=0;right=0;align=left;spacingLeft=6;overflow=hidden;" vertex="1" parent="sUH3_GQScgaXIJGSFh3w-92">
          <mxGeometry x="30" width="150" height="30" as="geometry" />
        </mxCell>
        <mxCell id="sUH3_GQScgaXIJGSFh3w-95" value="" style="shape=partialRectangle;collapsible=0;dropTarget=0;pointerEvents=0;fillColor=none;top=0;left=0;bottom=0;right=0;points=[[0,0.5],[1,0.5]];portConstraint=eastwest;" vertex="1" parent="sUH3_GQScgaXIJGSFh3w-88">
          <mxGeometry y="90" width="180" height="30" as="geometry" />
        </mxCell>
        <mxCell id="sUH3_GQScgaXIJGSFh3w-96" value="" style="shape=partialRectangle;connectable=0;fillColor=none;top=0;left=0;bottom=0;right=0;editable=1;overflow=hidden;" vertex="1" parent="sUH3_GQScgaXIJGSFh3w-95">
          <mxGeometry width="30" height="30" as="geometry" />
        </mxCell>
        <mxCell id="sUH3_GQScgaXIJGSFh3w-97" value="speed" style="shape=partialRectangle;connectable=0;fillColor=none;top=0;left=0;bottom=0;right=0;align=left;spacingLeft=6;overflow=hidden;" vertex="1" parent="sUH3_GQScgaXIJGSFh3w-95">
          <mxGeometry x="30" width="150" height="30" as="geometry" />
        </mxCell>
        <mxCell id="sUH3_GQScgaXIJGSFh3w-98" value="" style="shape=partialRectangle;collapsible=0;dropTarget=0;pointerEvents=0;fillColor=none;top=0;left=0;bottom=0;right=0;points=[[0,0.5],[1,0.5]];portConstraint=eastwest;" vertex="1" parent="sUH3_GQScgaXIJGSFh3w-88">
          <mxGeometry y="120" width="180" height="30" as="geometry" />
        </mxCell>
        <mxCell id="sUH3_GQScgaXIJGSFh3w-99" value="" style="shape=partialRectangle;connectable=0;fillColor=none;top=0;left=0;bottom=0;right=0;editable=1;overflow=hidden;" vertex="1" parent="sUH3_GQScgaXIJGSFh3w-98">
          <mxGeometry width="30" height="30" as="geometry" />
        </mxCell>
        <mxCell id="sUH3_GQScgaXIJGSFh3w-100" value="lat" style="shape=partialRectangle;connectable=0;fillColor=none;top=0;left=0;bottom=0;right=0;align=left;spacingLeft=6;overflow=hidden;" vertex="1" parent="sUH3_GQScgaXIJGSFh3w-98">
          <mxGeometry x="30" width="150" height="30" as="geometry" />
        </mxCell>
        <mxCell id="sUH3_GQScgaXIJGSFh3w-101" value="" style="shape=partialRectangle;collapsible=0;dropTarget=0;pointerEvents=0;fillColor=none;top=0;left=0;bottom=0;right=0;points=[[0,0.5],[1,0.5]];portConstraint=eastwest;" vertex="1" parent="sUH3_GQScgaXIJGSFh3w-88">
          <mxGeometry y="150" width="180" height="30" as="geometry" />
        </mxCell>
        <mxCell id="sUH3_GQScgaXIJGSFh3w-102" value="" style="shape=partialRectangle;connectable=0;fillColor=none;top=0;left=0;bottom=0;right=0;editable=1;overflow=hidden;" vertex="1" parent="sUH3_GQScgaXIJGSFh3w-101">
          <mxGeometry width="30" height="30" as="geometry" />
        </mxCell>
        <mxCell id="sUH3_GQScgaXIJGSFh3w-103" value="lng" style="shape=partialRectangle;connectable=0;fillColor=none;top=0;left=0;bottom=0;right=0;align=left;spacingLeft=6;overflow=hidden;" vertex="1" parent="sUH3_GQScgaXIJGSFh3w-101">
          <mxGeometry x="30" width="150" height="30" as="geometry" />
        </mxCell>
        <mxCell id="sUH3_GQScgaXIJGSFh3w-104" value="" style="shape=partialRectangle;collapsible=0;dropTarget=0;pointerEvents=0;fillColor=none;top=0;left=0;bottom=0;right=0;points=[[0,0.5],[1,0.5]];portConstraint=eastwest;" vertex="1" parent="sUH3_GQScgaXIJGSFh3w-88">
          <mxGeometry y="180" width="180" height="30" as="geometry" />
        </mxCell>
        <mxCell id="sUH3_GQScgaXIJGSFh3w-105" value="" style="shape=partialRectangle;connectable=0;fillColor=none;top=0;left=0;bottom=0;right=0;editable=1;overflow=hidden;" vertex="1" parent="sUH3_GQScgaXIJGSFh3w-104">
          <mxGeometry width="30" height="30" as="geometry" />
        </mxCell>
        <mxCell id="sUH3_GQScgaXIJGSFh3w-106" value="yaw" style="shape=partialRectangle;connectable=0;fillColor=none;top=0;left=0;bottom=0;right=0;align=left;spacingLeft=6;overflow=hidden;" vertex="1" parent="sUH3_GQScgaXIJGSFh3w-104">
          <mxGeometry x="30" width="150" height="30" as="geometry" />
        </mxCell>
        <mxCell id="sUH3_GQScgaXIJGSFh3w-107" value="" style="shape=partialRectangle;collapsible=0;dropTarget=0;pointerEvents=0;fillColor=none;top=0;left=0;bottom=0;right=0;points=[[0,0.5],[1,0.5]];portConstraint=eastwest;" vertex="1" parent="sUH3_GQScgaXIJGSFh3w-88">
          <mxGeometry y="210" width="180" height="30" as="geometry" />
        </mxCell>
        <mxCell id="sUH3_GQScgaXIJGSFh3w-108" value="" style="shape=partialRectangle;connectable=0;fillColor=none;top=0;left=0;bottom=0;right=0;editable=1;overflow=hidden;" vertex="1" parent="sUH3_GQScgaXIJGSFh3w-107">
          <mxGeometry width="30" height="30" as="geometry" />
        </mxCell>
        <mxCell id="sUH3_GQScgaXIJGSFh3w-109" value="created_at" style="shape=partialRectangle;connectable=0;fillColor=none;top=0;left=0;bottom=0;right=0;align=left;spacingLeft=6;overflow=hidden;" vertex="1" parent="sUH3_GQScgaXIJGSFh3w-107">
          <mxGeometry x="30" width="150" height="30" as="geometry" />
        </mxCell>
        <mxCell id="sUH3_GQScgaXIJGSFh3w-110" value="" style="shape=partialRectangle;collapsible=0;dropTarget=0;pointerEvents=0;fillColor=none;top=0;left=0;bottom=0;right=0;points=[[0,0.5],[1,0.5]];portConstraint=eastwest;" vertex="1" parent="sUH3_GQScgaXIJGSFh3w-88">
          <mxGeometry y="240" width="180" height="30" as="geometry" />
        </mxCell>
        <mxCell id="sUH3_GQScgaXIJGSFh3w-111" value="" style="shape=partialRectangle;connectable=0;fillColor=none;top=0;left=0;bottom=0;right=0;editable=1;overflow=hidden;" vertex="1" parent="sUH3_GQScgaXIJGSFh3w-110">
          <mxGeometry width="30" height="30" as="geometry" />
        </mxCell>
        <mxCell id="sUH3_GQScgaXIJGSFh3w-112" value="updated_at" style="shape=partialRectangle;connectable=0;fillColor=none;top=0;left=0;bottom=0;right=0;align=left;spacingLeft=6;overflow=hidden;" vertex="1" parent="sUH3_GQScgaXIJGSFh3w-110">
          <mxGeometry x="30" width="150" height="30" as="geometry" />
        </mxCell>
      </root>
    </mxGraphModel>
  </diagram>
</mxfile>
